<mxfile host="app.diagrams.net" modified="2020-11-24T14:05:52.298Z" agent="5.0 (Windows NT 10.0; Win64; x64) AppleWebKit/537.36 (KHTML, like Gecko) Chrome/87.0.4280.66 Safari/537.36 Edg/87.0.664.41" etag="OYQ6TdDuXlHUVv1wcEPu" version="13.10.2" type="github">
  <diagram name="Page-1" id="2ca16b54-16f6-2749-3443-fa8db7711227">
    <mxGraphModel dx="2062" dy="1154" grid="1" gridSize="10" guides="1" tooltips="1" connect="1" arrows="1" fold="1" page="1" pageScale="1" pageWidth="1100" pageHeight="850" background="#ffffff" math="0" shadow="0">
      <root>
        <mxCell id="0" />
        <mxCell id="1" parent="0" />
        <mxCell id="1iOGaAFrSu2fwKG4vINM-10" value="" style="endArrow=none;html=1;" parent="1" edge="1">
          <mxGeometry width="50" height="50" relative="1" as="geometry">
            <mxPoint x="20" y="40" as="sourcePoint" />
            <mxPoint x="700" y="40" as="targetPoint" />
          </mxGeometry>
        </mxCell>
        <mxCell id="1iOGaAFrSu2fwKG4vINM-11" value="&lt;font style=&quot;font-size: 16px ; background-color: rgb(255 , 255 , 255)&quot;&gt;Class Diagram of namespace &lt;b&gt;ATI_Net_FTconnect&lt;/b&gt;&lt;/font&gt;" style="text;html=1;strokeColor=none;fillColor=none;align=left;verticalAlign=middle;whiteSpace=wrap;rounded=0;" parent="1" vertex="1">
          <mxGeometry x="20" y="10" width="370" height="20" as="geometry" />
        </mxCell>
        <mxCell id="1iOGaAFrSu2fwKG4vINM-37" value="+ ATI_Net_Req" style="swimlane;fontStyle=1;align=center;verticalAlign=top;childLayout=stackLayout;horizontal=1;startSize=26;horizontalStack=0;resizeParent=1;resizeParentMax=0;resizeLast=0;collapsible=1;marginBottom=0;fontSize=14;" parent="1" vertex="1">
          <mxGeometry x="20" y="50" width="210" height="90" as="geometry">
            <mxRectangle x="20" y="50" width="110" height="26" as="alternateBounds" />
          </mxGeometry>
        </mxCell>
        <mxCell id="1iOGaAFrSu2fwKG4vINM-46" value="+ Request: byte [20]" style="text;strokeColor=none;fillColor=none;align=left;verticalAlign=top;spacingLeft=4;spacingRight=4;overflow=hidden;rotatable=0;points=[[0,0.5],[1,0.5]];portConstraint=eastwest;" parent="1iOGaAFrSu2fwKG4vINM-37" vertex="1">
          <mxGeometry y="26" width="210" height="26" as="geometry" />
        </mxCell>
        <mxCell id="1iOGaAFrSu2fwKG4vINM-39" value="" style="line;strokeWidth=1;fillColor=none;align=left;verticalAlign=middle;spacingTop=-1;spacingLeft=3;spacingRight=3;rotatable=0;labelPosition=right;points=[];portConstraint=eastwest;" parent="1iOGaAFrSu2fwKG4vINM-37" vertex="1">
          <mxGeometry y="52" width="210" height="8" as="geometry" />
        </mxCell>
        <mxCell id="1iOGaAFrSu2fwKG4vINM-40" value="+ ATI_Net_Req(int CmdCode): void" style="text;strokeColor=none;fillColor=none;align=left;verticalAlign=top;spacingLeft=4;spacingRight=4;overflow=hidden;rotatable=0;points=[[0,0.5],[1,0.5]];portConstraint=eastwest;" parent="1iOGaAFrSu2fwKG4vINM-37" vertex="1">
          <mxGeometry y="60" width="210" height="30" as="geometry" />
        </mxCell>
        <mxCell id="GB0pShtBo0qZIbZE_fmt-7" style="edgeStyle=orthogonalEdgeStyle;rounded=0;orthogonalLoop=1;jettySize=auto;html=1;exitX=1;exitY=0.5;exitDx=0;exitDy=0;" parent="1iOGaAFrSu2fwKG4vINM-37" source="1iOGaAFrSu2fwKG4vINM-46" target="1iOGaAFrSu2fwKG4vINM-46" edge="1">
          <mxGeometry relative="1" as="geometry" />
        </mxCell>
        <mxCell id="GB0pShtBo0qZIbZE_fmt-8" value="+ ATI_Net_communication" style="swimlane;fontStyle=1;align=center;verticalAlign=top;childLayout=stackLayout;horizontal=1;startSize=26;horizontalStack=0;resizeParent=1;resizeParentMax=0;resizeLast=0;collapsible=1;marginBottom=0;fontSize=14;" parent="1" vertex="1">
          <mxGeometry x="20" y="240" width="650" height="360" as="geometry">
            <mxRectangle x="20" y="150" width="110" height="26" as="alternateBounds" />
          </mxGeometry>
        </mxCell>
        <mxCell id="GB0pShtBo0qZIbZE_fmt-9" value="- ATI_IP: string" style="text;strokeColor=none;fillColor=none;align=left;verticalAlign=top;spacingLeft=4;spacingRight=4;overflow=hidden;rotatable=0;points=[[0,0.5],[1,0.5]];portConstraint=eastwest;spacingBottom=0;spacingTop=0;labelBackgroundColor=none;horizontal=1;" parent="GB0pShtBo0qZIbZE_fmt-8" vertex="1">
          <mxGeometry y="26" width="650" height="24" as="geometry" />
        </mxCell>
        <mxCell id="GB0pShtBo0qZIbZE_fmt-20" value="- ATI_Port: int" style="text;strokeColor=none;fillColor=none;align=left;verticalAlign=top;spacingLeft=4;spacingRight=4;overflow=hidden;rotatable=0;points=[[0,0.5],[1,0.5]];portConstraint=eastwest;spacingBottom=0;spacingTop=0;labelBackgroundColor=none;horizontal=1;" parent="GB0pShtBo0qZIbZE_fmt-8" vertex="1">
          <mxGeometry y="50" width="650" height="24" as="geometry" />
        </mxCell>
        <mxCell id="GB0pShtBo0qZIbZE_fmt-23" value="- SeqCount: int" style="text;strokeColor=none;fillColor=none;align=left;verticalAlign=top;spacingLeft=4;spacingRight=4;overflow=hidden;rotatable=0;points=[[0,0.5],[1,0.5]];portConstraint=eastwest;spacingBottom=0;spacingTop=0;labelBackgroundColor=none;horizontal=1;" parent="GB0pShtBo0qZIbZE_fmt-8" vertex="1">
          <mxGeometry y="74" width="650" height="24" as="geometry" />
        </mxCell>
        <mxCell id="GB0pShtBo0qZIbZE_fmt-24" value="- InitialTime: long" style="text;strokeColor=none;fillColor=none;align=left;verticalAlign=top;spacingLeft=4;spacingRight=4;overflow=hidden;rotatable=0;points=[[0,0.5],[1,0.5]];portConstraint=eastwest;spacingBottom=0;spacingTop=0;labelBackgroundColor=none;horizontal=1;" parent="GB0pShtBo0qZIbZE_fmt-8" vertex="1">
          <mxGeometry y="98" width="650" height="24" as="geometry" />
        </mxCell>
        <mxCell id="GB0pShtBo0qZIbZE_fmt-22" value="- IsConnected: bool" style="text;strokeColor=none;fillColor=none;align=left;verticalAlign=top;spacingLeft=4;spacingRight=4;overflow=hidden;rotatable=0;points=[[0,0.5],[1,0.5]];portConstraint=eastwest;spacingBottom=0;spacingTop=0;labelBackgroundColor=none;horizontal=1;" parent="GB0pShtBo0qZIbZE_fmt-8" vertex="1">
          <mxGeometry y="122" width="650" height="24" as="geometry" />
        </mxCell>
        <mxCell id="GB0pShtBo0qZIbZE_fmt-25" value="+ Socket_to_ATI: socket" style="text;strokeColor=none;fillColor=none;align=left;verticalAlign=top;spacingLeft=4;spacingRight=4;overflow=hidden;rotatable=0;points=[[0,0.5],[1,0.5]];portConstraint=eastwest;spacingBottom=0;spacingTop=0;labelBackgroundColor=none;horizontal=1;" parent="GB0pShtBo0qZIbZE_fmt-8" vertex="1">
          <mxGeometry y="146" width="650" height="24" as="geometry" />
        </mxCell>
        <mxCell id="GB0pShtBo0qZIbZE_fmt-10" value="" style="line;strokeWidth=1;fillColor=none;align=left;verticalAlign=middle;spacingTop=-1;spacingLeft=3;spacingRight=3;rotatable=0;labelPosition=right;points=[];portConstraint=eastwest;" parent="GB0pShtBo0qZIbZE_fmt-8" vertex="1">
          <mxGeometry y="170" width="650" height="8" as="geometry" />
        </mxCell>
        <mxCell id="GB0pShtBo0qZIbZE_fmt-11" value="+ ATI_Net_Communication(void): void " style="text;strokeColor=none;fillColor=none;align=left;verticalAlign=top;spacingLeft=4;spacingRight=4;overflow=hidden;rotatable=0;points=[[0,0.5],[1,0.5]];portConstraint=eastwest;" parent="GB0pShtBo0qZIbZE_fmt-8" vertex="1">
          <mxGeometry y="178" width="650" height="26" as="geometry" />
        </mxCell>
        <mxCell id="GB0pShtBo0qZIbZE_fmt-12" value="+ RequestBiasing(void): void" style="text;strokeColor=none;fillColor=none;align=left;verticalAlign=top;spacingLeft=4;spacingRight=4;overflow=hidden;rotatable=0;points=[[0,0.5],[1,0.5]];portConstraint=eastwest;" parent="GB0pShtBo0qZIbZE_fmt-8" vertex="1">
          <mxGeometry y="204" width="650" height="26" as="geometry" />
        </mxCell>
        <mxCell id="GB0pShtBo0qZIbZE_fmt-13" value="+ RequestCalibrationInfo(void): Tuple&lt;float, float[], byte&gt;" style="text;strokeColor=none;fillColor=none;align=left;verticalAlign=top;spacingLeft=4;spacingRight=4;overflow=hidden;rotatable=0;points=[[0,0.5],[1,0.5]];portConstraint=eastwest;" parent="GB0pShtBo0qZIbZE_fmt-8" vertex="1">
          <mxGeometry y="230" width="650" height="26" as="geometry" />
        </mxCell>
        <mxCell id="GB0pShtBo0qZIbZE_fmt-27" value="+ RequestStampedForces(Tuple&lt;float, float[], byte&gt;): Tuple&lt;int, long, float, float, float&gt; " style="text;strokeColor=none;fillColor=none;align=left;verticalAlign=top;spacingLeft=4;spacingRight=4;overflow=hidden;rotatable=0;points=[[0,0.5],[1,0.5]];portConstraint=eastwest;" parent="GB0pShtBo0qZIbZE_fmt-8" vertex="1">
          <mxGeometry y="256" width="650" height="26" as="geometry" />
        </mxCell>
        <mxCell id="GB0pShtBo0qZIbZE_fmt-14" value="+ StartConnection(void): void" style="text;strokeColor=none;fillColor=none;align=left;verticalAlign=top;spacingLeft=4;spacingRight=4;overflow=hidden;rotatable=0;points=[[0,0.5],[1,0.5]];portConstraint=eastwest;" parent="GB0pShtBo0qZIbZE_fmt-8" vertex="1">
          <mxGeometry y="282" width="650" height="26" as="geometry" />
        </mxCell>
        <mxCell id="GB0pShtBo0qZIbZE_fmt-29" value="+ EndConnection(void): void" style="text;strokeColor=none;fillColor=none;align=left;verticalAlign=top;spacingLeft=4;spacingRight=4;overflow=hidden;rotatable=0;points=[[0,0.5],[1,0.5]];portConstraint=eastwest;" parent="GB0pShtBo0qZIbZE_fmt-8" vertex="1">
          <mxGeometry y="308" width="650" height="26" as="geometry" />
        </mxCell>
        <mxCell id="GB0pShtBo0qZIbZE_fmt-28" value="+ IsConnected(void): bool" style="text;strokeColor=none;fillColor=none;align=left;verticalAlign=top;spacingLeft=4;spacingRight=4;overflow=hidden;rotatable=0;points=[[0,0.5],[1,0.5]];portConstraint=eastwest;" parent="GB0pShtBo0qZIbZE_fmt-8" vertex="1">
          <mxGeometry y="334" width="650" height="26" as="geometry" />
        </mxCell>
        <mxCell id="1iOGaAFrSu2fwKG4vINM-42" value="+ ATI_Net_Res" style="swimlane;fontStyle=1;align=center;verticalAlign=top;childLayout=stackLayout;horizontal=1;startSize=26;horizontalStack=0;resizeParent=1;resizeParentMax=0;resizeLast=0;collapsible=1;marginBottom=0;fontSize=14;" parent="1" vertex="1">
          <mxGeometry x="280" y="50" width="390" height="164" as="geometry">
            <mxRectangle x="20" y="150" width="110" height="26" as="alternateBounds" />
          </mxGeometry>
        </mxCell>
        <mxCell id="1iOGaAFrSu2fwKG4vINM-43" value="+ Response: byte [ ]" style="text;strokeColor=none;fillColor=none;align=left;verticalAlign=top;spacingLeft=4;spacingRight=4;overflow=hidden;rotatable=0;points=[[0,0.5],[1,0.5]];portConstraint=eastwest;" parent="1iOGaAFrSu2fwKG4vINM-42" vertex="1">
          <mxGeometry y="26" width="390" height="26" as="geometry" />
        </mxCell>
        <mxCell id="1iOGaAFrSu2fwKG4vINM-44" value="" style="line;strokeWidth=1;fillColor=none;align=left;verticalAlign=middle;spacingTop=-1;spacingLeft=3;spacingRight=3;rotatable=0;labelPosition=right;points=[];portConstraint=eastwest;" parent="1iOGaAFrSu2fwKG4vINM-42" vertex="1">
          <mxGeometry y="52" width="390" height="8" as="geometry" />
        </mxCell>
        <mxCell id="1iOGaAFrSu2fwKG4vINM-45" value="+ ATI_Net_Res(int CmdCode): void" style="text;strokeColor=none;fillColor=none;align=left;verticalAlign=top;spacingLeft=4;spacingRight=4;overflow=hidden;rotatable=0;points=[[0,0.5],[1,0.5]];portConstraint=eastwest;" parent="1iOGaAFrSu2fwKG4vINM-42" vertex="1">
          <mxGeometry y="60" width="390" height="26" as="geometry" />
        </mxCell>
        <mxCell id="GB0pShtBo0qZIbZE_fmt-3" value="+ ntoh_bytes(byte [ ]): byte [ ] " style="text;strokeColor=none;fillColor=none;align=left;verticalAlign=top;spacingLeft=4;spacingRight=4;overflow=hidden;rotatable=0;points=[[0,0.5],[1,0.5]];portConstraint=eastwest;" parent="1iOGaAFrSu2fwKG4vINM-42" vertex="1">
          <mxGeometry y="86" width="390" height="26" as="geometry" />
        </mxCell>
        <mxCell id="GB0pShtBo0qZIbZE_fmt-5" value="+ GetCalibrationInfo(byte [ ]): Tuple&lt;float, float[3], byte&gt;" style="text;strokeColor=none;fillColor=none;align=left;verticalAlign=top;spacingLeft=4;spacingRight=4;overflow=hidden;rotatable=0;points=[[0,0.5],[1,0.5]];portConstraint=eastwest;" parent="1iOGaAFrSu2fwKG4vINM-42" vertex="1">
          <mxGeometry y="112" width="390" height="26" as="geometry" />
        </mxCell>
        <mxCell id="GB0pShtBo0qZIbZE_fmt-4" value="+ GetForce(byte [ ], Tuple&lt;float, float[3], byte&gt;): Tuple&lt;float, float, float&gt;" style="text;strokeColor=none;fillColor=none;align=left;verticalAlign=top;spacingLeft=4;spacingRight=4;overflow=hidden;rotatable=0;points=[[0,0.5],[1,0.5]];portConstraint=eastwest;" parent="1iOGaAFrSu2fwKG4vINM-42" vertex="1">
          <mxGeometry y="138" width="390" height="26" as="geometry" />
        </mxCell>
      </root>
    </mxGraphModel>
  </diagram>
</mxfile>
